<svg width="36" height="37" viewBox="0 0 36 37" fill="none" xmlns="http://www.w3.org/2000/svg">
<g id="ri:instagram-fill">
<path id="Vector" d="M19.542 3.41359C20.6366 3.40939 21.7312 3.42039 22.8255 3.44659L23.1165 3.45709C23.4525 3.46909 23.784 3.48409 24.1845 3.50209C25.7805 3.57709 26.8695 3.82909 27.825 4.19959C28.815 4.58059 29.649 5.09659 30.483 5.93059C31.2456 6.68 31.8358 7.58651 32.2125 8.58709C32.583 9.54259 32.835 10.6331 32.91 12.2291C32.928 12.6281 32.943 12.9611 32.955 13.2971L32.964 13.5881C32.9907 14.6819 33.0022 15.776 32.9985 16.8701L33 17.9891V19.9541C33.0037 21.0487 32.9922 22.1433 32.9655 23.2376L32.9565 23.5286C32.9445 23.8646 32.9295 24.1961 32.9115 24.5966C32.8365 26.1926 32.5815 27.2816 32.2125 28.2371C31.837 29.2387 31.2467 30.146 30.483 30.8951C29.733 31.6576 28.826 32.2477 27.825 32.6246C26.8695 32.9951 25.7805 33.2471 24.1845 33.3221C23.784 33.3401 23.4525 33.3551 23.1165 33.3671L22.8255 33.3761C21.7313 33.4028 20.6366 33.4143 19.542 33.4106L18.423 33.4121H16.4595C15.3649 33.4158 14.2703 33.4043 13.176 33.3776L12.885 33.3686C12.529 33.3557 12.1729 33.3407 11.817 33.3236C10.221 33.2486 9.13204 32.9936 8.17504 32.6246C7.17407 32.2486 6.2674 31.6583 5.51854 30.8951C4.75511 30.1455 4.16438 29.2384 3.78754 28.2371C3.41704 27.2816 3.16504 26.1926 3.09004 24.5966C3.07334 24.2407 3.05834 23.8847 3.04504 23.5286L3.03754 23.2376C3.00989 22.1433 2.99739 21.0487 3.00004 19.9541V16.8701C2.99586 15.776 3.00686 14.6819 3.03304 13.5881L3.04354 13.2971C3.05554 12.9611 3.07054 12.6281 3.08854 12.2291C3.16354 10.6316 3.41554 9.54409 3.78604 8.58709C4.1631 7.58602 4.75499 6.67976 5.52004 5.93209C6.26838 5.16822 7.17448 4.57695 8.17504 4.19959C9.13204 3.82909 10.2195 3.57709 11.817 3.50209L12.885 3.45709L13.176 3.44959C14.2698 3.42195 15.3639 3.40945 16.458 3.41209L19.542 3.41359ZM18 10.9136C17.0063 10.8995 16.0197 11.0831 15.0975 11.4537C14.1753 11.8243 13.336 12.3744 12.6283 13.0722C11.9206 13.7699 11.3586 14.6014 10.9751 15.5182C10.5915 16.4351 10.394 17.419 10.394 18.4128C10.394 19.4067 10.5915 20.3906 10.9751 21.3074C11.3586 22.2243 11.9206 23.0557 12.6283 23.7535C13.336 24.4513 14.1753 25.0014 15.0975 25.372C16.0197 25.7426 17.0063 25.9261 18 25.9121C19.9892 25.9121 21.8968 25.1219 23.3033 23.7154C24.7099 22.3089 25.5 20.4012 25.5 18.4121C25.5 16.423 24.7099 14.5153 23.3033 13.1088C21.8968 11.7023 19.9892 10.9136 18 10.9136ZM18 13.9136C18.5978 13.9026 19.1918 14.0108 19.7472 14.2319C20.3027 14.453 20.8085 14.7826 21.2352 15.2014C21.6619 15.6202 22.0008 16.1198 22.2322 16.6711C22.4636 17.2224 22.5828 17.8142 22.5829 18.4121C22.583 19.0099 22.464 19.6018 22.2328 20.1532C22.0016 20.7045 21.6628 21.2042 21.2363 21.6232C20.8098 22.0421 20.304 22.3719 19.7486 22.5932C19.1932 22.8145 18.5993 22.9229 18.0015 22.9121C16.8081 22.9121 15.6635 22.438 14.8196 21.5941C13.9756 20.7502 13.5015 19.6056 13.5015 18.4121C13.5015 17.2186 13.9756 16.074 14.8196 15.2301C15.6635 14.3862 16.8081 13.9121 18.0015 13.9121L18 13.9136ZM25.875 8.66359C25.3911 8.68296 24.9335 8.88881 24.5979 9.23805C24.2624 9.58728 24.075 10.0528 24.075 10.5371C24.075 11.0214 24.2624 11.4869 24.5979 11.8361C24.9335 12.1854 25.3911 12.3912 25.875 12.4106C26.3723 12.4106 26.8492 12.213 27.2009 11.8614C27.5525 11.5098 27.75 11.0329 27.75 10.5356C27.75 10.0383 27.5525 9.56139 27.2009 9.20976C26.8492 8.85813 26.3723 8.66059 25.875 8.66059V8.66359Z" fill="white"/>
</g>
</svg>
