<svg width="36" height="37" viewBox="0 0 36 37" fill="none" xmlns="http://www.w3.org/2000/svg">
<g id="ic:baseline-telegram">
<path id="Vector" d="M18 3.41211C9.72 3.41211 3 10.1321 3 18.4121C3 26.6921 9.72 33.4121 18 33.4121C26.28 33.4121 33 26.6921 33 18.4121C33 10.1321 26.28 3.41211 18 3.41211ZM24.96 13.6121C24.735 15.9821 23.76 21.7421 23.265 24.3971C23.055 25.5221 22.635 25.8971 22.245 25.9421C21.375 26.0171 20.715 25.3721 19.875 24.8171C18.555 23.9471 17.805 23.4071 16.53 22.5671C15.045 21.5921 16.005 21.0521 16.86 20.1821C17.085 19.9571 20.925 16.4621 21 16.1471C21.0104 16.0994 21.009 16.0499 20.996 16.0028C20.9829 15.9558 20.9585 15.9126 20.925 15.8771C20.835 15.8021 20.715 15.8321 20.61 15.8471C20.475 15.8771 18.375 17.2721 14.28 20.0321C13.68 20.4371 13.14 20.6471 12.66 20.6321C12.12 20.6171 11.1 20.3321 10.335 20.0771C9.39 19.7771 8.655 19.6121 8.715 19.0871C8.745 18.8171 9.12 18.5471 9.825 18.2621C14.205 16.3571 17.115 15.0971 18.57 14.4971C22.74 12.7571 23.595 12.4571 24.165 12.4571C24.285 12.4571 24.57 12.4871 24.75 12.6371C24.9 12.7571 24.945 12.9221 24.96 13.0421C24.945 13.1321 24.975 13.4021 24.96 13.6121Z" fill="white"/>
</g>
</svg>
